<?xml version="1.0" encoding="UTF-8" standalone="yes"?>

<svg width="1802" height="902">
	<defs>
		<rect id="shape" width="150" height="150" style="fill:inhered;stroke:pink;stroke-width:5;stroke-opacity:0.9" />		
	</defs>
	
	<use x="1" y="1" fill="red" xlink:href="#shape" /> <!-- type 7 -->	
	<use x="151" y="1" fill="red" xlink:href="#shape" /> <!-- type 1 -->	
	<use x="301" y="1" fill="red" xlink:href="#shape" /> <!-- type 2 -->	
	<use x="451" y="1" fill="red" xlink:href="#shape" /> <!-- type 3 -->	
	<use x="601" y="1" fill="#4be73f" xlink:href="#shape" /> <!-- type 5 -->	
	<use x="751" y="1" fill="#4be73f" xlink:href="#shape" /> <!-- type 10 -->	
	<use x="901" y="1" fill="red" xlink:href="#shape" /> <!-- type 11 -->	
	<use x="1051" y="1" fill="#4be73f" xlink:href="#shape" /> <!-- type 4 -->	
	<use x="1201" y="1" fill="#4be73f" xlink:href="#shape" /> <!-- type 6 -->	
	<use x="1351" y="1" fill="#4be73f" xlink:href="#shape" /> <!-- type 9 -->	
	<use x="1501" y="1" fill="#4be73f" xlink:href="#shape" /> <!-- type 8 -->	
	<use x="1651" y="1" fill="red" xlink:href="#shape" /> <!-- type 12 -->	
	<use x="1" y="151" fill="#4be73f" xlink:href="#shape" /> <!-- type 7 -->	
	<use x="151" y="151" fill="#4be73f" xlink:href="#shape" /> <!-- type 1 -->	
	<use x="301" y="151" fill="#4be73f" xlink:href="#shape" /> <!-- type 2 -->	
	<use x="451" y="151" fill="#4be73f" xlink:href="#shape" /> <!-- type 3 -->	
	<use x="601" y="151" fill="#4be73f" xlink:href="#shape" /> <!-- type 5 -->	
	<use x="751" y="151" fill="#4be73f" xlink:href="#shape" /> <!-- type 10 -->	
	<use x="901" y="151" fill="red" xlink:href="#shape" /> <!-- type 11 -->	
	<use x="1051" y="151" fill="#4be73f" xlink:href="#shape" /> <!-- type 4 -->	
	<use x="1201" y="151" fill="#4be73f" xlink:href="#shape" /> <!-- type 6 -->	
	<use x="1351" y="151" fill="#4be73f" xlink:href="#shape" /> <!-- type 9 -->	
	<use x="1501" y="151" fill="red" xlink:href="#shape" /> <!-- type 8 -->	
	<use x="1651" y="151" fill="#4be73f" xlink:href="#shape" /> <!-- type 12 -->	
	<use x="1" y="301" fill="#4be73f" xlink:href="#shape" /> <!-- type 7 -->	
	<use x="151" y="301" fill="#4be73f" xlink:href="#shape" /> <!-- type 1 -->	
	<use x="301" y="301" fill="red" xlink:href="#shape" /> <!-- type 2 -->	
	<use x="451" y="301" fill="red" xlink:href="#shape" /> <!-- type 3 -->	
	<use x="601" y="301" fill="#4be73f" xlink:href="#shape" /> <!-- type 5 -->	
	<use x="751" y="301" fill="#4be73f" xlink:href="#shape" /> <!-- type 10 -->	
	<use x="901" y="301" fill="red" xlink:href="#shape" /> <!-- type 11 -->	
	<use x="1051" y="301" fill="#4be73f" xlink:href="#shape" /> <!-- type 4 -->	
	<use x="1201" y="301" fill="red" xlink:href="#shape" /> <!-- type 6 -->	
	<use x="1351" y="301" fill="blue" xlink:href="#shape" /> <!-- type 9 -->	
	<use x="1501" y="301" fill="#4be73f" xlink:href="#shape" /> <!-- type 8 -->	
	<use x="1" y="451" fill="#4be73f" xlink:href="#shape" /> <!-- type 7 -->	
	<use x="151" y="451" fill="#4be73f" xlink:href="#shape" /> <!-- type 1 -->	
	<use x="301" y="451" fill="red" xlink:href="#shape" /> <!-- type 2 -->	
	<use x="451" y="451" fill="red" xlink:href="#shape" /> <!-- type 3 -->	
	<use x="601" y="451" fill="#4be73f" xlink:href="#shape" /> <!-- type 5 -->	
	<use x="751" y="451" fill="#4be73f" xlink:href="#shape" /> <!-- type 10 -->	
	<use x="901" y="451" fill="red" xlink:href="#shape" /> <!-- type 11 -->	
	<use x="1051" y="451" fill="#4be73f" xlink:href="#shape" /> <!-- type 4 -->	
	<use x="1201" y="451" fill="#4be73f" xlink:href="#shape" /> <!-- type 6 -->	
	<use x="1351" y="451" fill="#4be73f" xlink:href="#shape" /> <!-- type 9 -->	
	<use x="1501" y="451" fill="#4be73f" xlink:href="#shape" /> <!-- type 8 -->	
	<use x="1" y="601" fill="#4be73f" xlink:href="#shape" /> <!-- type 7 -->	
	<use x="151" y="601" fill="#4be73f" xlink:href="#shape" /> <!-- type 1 -->	
	<use x="301" y="601" fill="#4be73f" xlink:href="#shape" /> <!-- type 2 -->	
	<use x="451" y="601" fill="#4be73f" xlink:href="#shape" /> <!-- type 3 -->	
	<use x="601" y="601" fill="#4be73f" xlink:href="#shape" /> <!-- type 5 -->	
	<use x="751" y="601" fill="#4be73f" xlink:href="#shape" /> <!-- type 10 -->	
	<use x="901" y="601" fill="red" xlink:href="#shape" /> <!-- type 11 -->	
	<use x="1051" y="601" fill="#4be73f" xlink:href="#shape" /> <!-- type 4 -->	
	<use x="1201" y="601" fill="red" xlink:href="#shape" /> <!-- type 6 -->	
	<use x="1351" y="601" fill="#4be73f" xlink:href="#shape" /> <!-- type 9 -->	
	<use x="1501" y="601" fill="#4be73f" xlink:href="#shape" /> <!-- type 8 -->	
	<use x="1" y="751" fill="#4be73f" xlink:href="#shape" /> <!-- type 7 -->	
	<use x="151" y="751" fill="#4be73f" xlink:href="#shape" /> <!-- type 1 -->	
	<use x="301" y="751" fill="red" xlink:href="#shape" /> <!-- type 2 -->	
	<use x="451" y="751" fill="red" xlink:href="#shape" /> <!-- type 3 -->	
	<use x="601" y="751" fill="#4be73f" xlink:href="#shape" /> <!-- type 5 -->	
	<use x="751" y="751" fill="#4be73f" xlink:href="#shape" /> <!-- type 10 -->	
	<use x="901" y="751" fill="#4be73f" xlink:href="#shape" /> <!-- type 11 -->	
	<use x="1051" y="751" fill="#4be73f" xlink:href="#shape" /> <!-- type 4 -->	
	<use x="1201" y="751" fill="#4be73f" xlink:href="#shape" /> <!-- type 6 -->	
	<use x="1351" y="751" fill="#4be73f" xlink:href="#shape" /> <!-- type 9 -->	
	<use x="1501" y="751" fill="#4be73f" xlink:href="#shape" /> <!-- type 8 -->	
</svg> 
