<?xml version="1.0" standalone="no"?>
<!DOCTYPE svg PUBLIC "-//W3C//DTD SVG 20010904//EN"
"http://www.w3.org/TR/2001/REC-SVG-20010904/DTD/svg10.dtd">
<svg version="1.0" xmlns="http://www.w3.org/2000/svg"
     width="225.000000pt" height="225.000000pt" viewBox="0 0 225.000000 225.000000"
     preserveAspectRatio="xMidYMid meet">
  <defs>
    <linearGradient id="displayColor">
      <stop offset="0" stop-color="black" />
    </linearGradient>
  </defs>
  
  <g transform="translate(0.000000,225.000000) scale(0.100000,-0.100000)"
     fill="url(#displayColor)" stroke="none">
    <path d="M947 2235 c-229 -39 -424 -135 -588 -292 -122 -117 -207 -236 -263
	     -370 -218 -522 -29 -1113 449 -1403 166 -100 330 -149 535 -157 323 -13 612
	     98 835 322 215 215 327 484 327 790 1 146 -10 219 -53 350 -54 167 -129 293
	     -254 423 -43 46 -108 105 -143 131 -233 175 -558 254 -845 206z m37 -286 c32
	     -25 36 -77 7 -103 -28 -25 -79 -17 -104 16 -18 24 -19 30 -7 58 12 29 37 48
	     66 49 6 1 23 -8 38 -20z m817 -115 c19 -23 13 -202 -10 -298 -10 -42 -21 -80
	     -25 -83 -4 -4 -46 32 -94 80 l-87 87 -111 -110 -110 -111 -60 32 c-51 27 -66
	     30 -112 26 -66 -7 -116 -37 -146 -90 -44 -78 -41 -157 9 -223 l24 -31 -102
	     -101 c-98 -98 -102 -104 -99 -140 3 -32 -4 -50 -47 -113 -98 -147 -276 -289
	     -362 -289 -37 0 -42 36 -15 96 14 31 39 72 55 92 l29 37 -44 49 c-38 41 -51
	     49 -89 54 -25 2 -71 -1 -104 -7 -32 -6 -66 -9 -75 -5 -28 11 -18 50 30 113 74
	     98 175 175 285 215 30 12 52 28 63 48 64 107 305 360 436 457 134 100 321 184
	     480 216 98 20 264 19 281 -1z m-1378 -306 c49 -57 -16 -138 -83 -103 -34 18
	     -47 56 -31 91 21 46 79 52 114 12z m837 -153 c65 -34 89 -109 55 -175 -30 -58
	     -112 -77 -173 -40 -81 50 -75 171 11 214 40 20 70 20 107 1z m674 -277 c35
	     -49 4 -111 -54 -111 -58 0 -89 62 -54 111 11 16 25 22 54 22 29 0 43 -6 54
	     -22z m-814 -468 c0 -26 -50 -142 -83 -192 -44 -66 -154 -172 -202 -195 -56
	     -27 -68 -14 -59 60 10 78 10 111 0 165 -8 42 -7 42 21 42 61 0 225 65 288 114
	     23 18 35 20 35 6z m594 -31 c32 -25 36 -77 7 -103 -48 -43 -134 10 -114 70 9
	     27 43 54 69 54 6 0 23 -9 38 -21z m-373 -158 c35 -35 36 -52 6 -87 -28 -32
	     -70 -35 -99 -6 -29 29 -26 71 6 99 35 30 52 29 87 -6z"/>
  </g>
</svg>
