<?xml version="1.0" encoding="UTF-8"?>
<!-- Generator: Adobe Illustrator 15.0.2, SVG Export Plug-In . SVG Version: 6.00 Build 0)  -->
<!DOCTYPE svg PUBLIC "-//W3C//DTD SVG 1.1//EN" "http://www.w3.org/Graphics/SVG/1.1/DTD/svg11.dtd">
<svg version="1.1" id="Layer_2" xmlns="http://www.w3.org/2000/svg" xmlns:xlink="http://www.w3.org/1999/xlink" x="0px" y="0px" width="410.316px" height="409.549px" viewBox="0 0 410.316 409.549" enable-background="new 0 0 410.316 409.549" xml:space="preserve">
  <defs>
    <linearGradient id="displayColor">
      <stop offset="0" stop-color="black" />
    </linearGradient>
  </defs>
  <path d="M409.282,328.563c0,0-2.202-3.963-3.964,2.202l-2.643,6.166l-7.487-0.439l6.606-7.488c0,0-0.441-3.963-4.845-1.762  l-3.523-18.059c0,0-0.881-2.202-2.643-1.32c0,0-0.439-3.083-3.523,0.44l-7.928,8.368l-7.488,2.202c0,0-7.046-1.762-10.129,0.44  c0,0-3.965,0.44-7.929-1.762s-36.115-41.841-41.841-47.127c0,0-10.13-42.282-9.25-56.376c0.881-14.094,4.404-64.303-18.938-73.552  s-30.831-13.654-30.831-13.654s-18.058-10.129-19.819-16.736V98.656c0,0,6.166-7.047,6.606-20.26c0,0,6.166-0.879,8.369-11.45  c0,0,7.486-17.617-1.322-12.772l-2.201-2.203c0,0,2.642-18.058,1.32-24.665C244.559,20.7,241.035-0.44,214.168,0  c-26.867,0.44-38.758,18.058-35.234,43.163v9.249c0,0-6.166-5.285-4.404,3.964l4.844,18.499c0,0,2.643,7.047,4.405,2.202  l1.322,13.213c0,0,0.439,3.964,3.963,7.488c0,0,2.643,12.332-3.082,17.177c-5.727,4.845-21.142,13.652-21.142,13.652l-25.545,11.011  c0,0-24.224,3.523-19.819,62.102l-4.845,58.578l-3.964,9.689c0,0-44.925,54.614-55.055,59.899l-9.689-1.321l-11.011-0.44  l-8.809-2.643l-7.487-6.166c0,0-1.762-1.761-2.643,0.44c0,0-4.404,0.44-3.964,5.726l0.44,16.736l1.321,4.404l-3.523,0.441  l-3.523-7.047l-1.321-3.523c0,0-2.643-2.644-4.404-0.882s0,3.964,0,3.964l2.643,8.368c0,0-4.404,0.881-3.523,3.523  c0.881,2.644,3.523,1.762,5.285,2.202c1.762,0.441,25.105,7.047,25.105,7.047l-8.369,8.369l-6.166,3.083  c0,0-3.083,3.965,0.881,4.404l10.57-3.523l9.25-7.048l12.772-8.809c0,0-11.011,9.689-6.166,23.784s14.975,18.498,19.379,20.7  c4.404,2.203,6.166,8.809,28.628,6.606c0,0,70.029,4.405,122.44-12.332l16.737-1.321c0,0,60.779,24.664,96.896,10.57l6.607-4.844  l7.487-1.322l13.653-10.13c0,0,23.783-6.166,18.498-33.474l12.773,6.607l1.762-3.084l-10.13-11.011c0,0,7.046,2.643,10.13-2.202  l18.058-0.881C406.199,344.859,412.805,336.492,409.282,328.563z M23.459,344.42c-4.404-0.44-4.845-13.213-4.845-13.213  C29.625,331.207,23.459,344.42,23.459,344.42z M144.58,321.077c0,0-23.343,3.964-27.748,7.047s-17.177-2.202-17.177-2.202  s34.794-30.391,40.52-36.997c5.726-6.607,12.773-46.687,12.773-46.687l2.643,32.152L144.58,321.077z M281.555,321.518l-9.25-62.103  l7.929,27.308c7.487,22.463,64.744,49.77,64.744,49.77C329.563,336.051,281.555,321.518,281.555,321.518z M388.582,317.994  l0.44,11.451C379.773,325.922,388.582,317.994,388.582,317.994z"  fill="url(#displayColor)"/>
</svg>
