<?xml version="1.0" standalone="no"?>
<!DOCTYPE svg PUBLIC "-//W3C//DTD SVG 20010904//EN"
 "http://www.w3.org/TR/2001/REC-SVG-20010904/DTD/svg10.dtd">
<svg version="1.0" xmlns="http://www.w3.org/2000/svg"
 width="189.000000pt" height="266.000000pt" viewBox="0 0 189.000000 266.000000"
 preserveAspectRatio="xMidYMid meet">
  <defs>
    <linearGradient id="displayColor">
      <stop offset="0" stop-color="black" />
    </linearGradient>
  </defs>
  <g transform="translate(0.000000,266.000000) scale(0.100000,-0.100000)"
     fill="url(#displayColor)" stroke="none">
    <path d="M755 2564 c-402 -88 -677 -470 -635 -881 22 -207 88 -338 275 -543
100 -110 125 -148 172 -256 38 -87 38 -90 24 -128 -11 -30 -12 -47 -4 -80 6
-22 9 -64 6 -92 -3 -29 0 -60 6 -72 8 -16 8 -32 -1 -65 -10 -39 -9 -49 10 -89
12 -24 22 -52 22 -62 0 -52 67 -116 123 -116 21 0 27 -5 27 -21 0 -11 13 -34
29 -50 29 -28 32 -29 136 -29 104 0 107 1 136 29 16 16 29 39 29 50 0 16 6 21
28 21 55 0 122 64 122 116 0 10 10 38 22 62 19 40 20 50 10 89 -9 33 -9 49 -1
65 7 13 9 43 6 77 -4 33 -1 69 5 89 10 26 9 41 -3 75 -14 41 -13 44 24 131 47
111 75 151 191 280 107 118 146 173 186 259 48 101 71 208 71 327 0 158 -22
251 -92 391 -98 196 -281 349 -489 409 -100 30 -332 37 -435 14z m49 -135 c14
-11 34 -35 43 -52 22 -44 20 -134 -4 -182 l-20 -38 25 -44 c34 -62 28 -137
-16 -192 -28 -34 -30 -41 -16 -52 46 -38 73 -172 42 -211 -14 -17 -125 -31
-134 -16 -3 4 -20 8 -37 8 -26 0 -35 6 -47 32 -22 47 -59 70 -112 70 -42 0
-46 2 -51 26 -3 15 -2 28 1 30 4 1 23 10 42 20 34 17 36 17 68 -2 27 -15 41
-17 70 -10 32 8 39 6 65 -20 22 -23 31 -26 37 -16 6 9 0 24 -16 43 -28 34 -30
63 -7 112 9 19 13 38 9 42 -13 13 -56 -46 -56 -76 0 -15 -5 -32 -12 -39 -16
-16 -73 -15 -86 1 -15 18 -3 86 21 118 14 20 18 39 16 72 -4 43 -2 46 24 51
34 7 87 57 87 82 0 10 16 32 35 50 33 30 47 64 25 64 -5 0 -20 -11 -34 -25
-29 -29 -62 -32 -95 -9 -17 13 -25 14 -34 4 -9 -9 -6 -16 12 -31 13 -10 32
-19 42 -19 42 0 7 -65 -45 -84 -31 -11 -94 13 -131 50 -28 28 -35 42 -35 75 0
52 34 89 83 89 24 0 41 8 63 31 65 70 129 87 178 48z m440 -29 c41 -39 60 -50
85 -50 42 0 81 -38 81 -80 0 -108 -156 -181 -216 -102 -20 25 -17 52 5 52 10
0 29 9 42 19 18 15 21 22 12 31 -9 10 -17 9 -34 -4 -33 -23 -66 -20 -95 9 -14
14 -29 25 -34 25 -22 0 -8 -34 25 -64 19 -18 35 -40 35 -48 0 -28 49 -77 83
-83 31 -6 32 -8 28 -52 -2 -33 2 -52 16 -72 24 -32 36 -100 21 -118 -13 -16
-70 -17 -86 -1 -7 7 -12 24 -12 39 0 16 -11 41 -25 56 -20 23 -26 26 -34 13
-6 -8 -6 -17 -2 -20 15 -9 31 -48 31 -74 0 -13 -11 -37 -24 -53 -16 -19 -22
-34 -16 -43 6 -10 15 -7 37 16 26 26 33 28 65 20 29 -7 43 -5 70 10 32 19 34
19 68 2 19 -10 38 -19 42 -20 3 -2 4 -15 1 -30 -5 -24 -9 -26 -51 -26 -53 0
-90 -23 -112 -70 -12 -25 -21 -32 -46 -32 -17 0 -34 -3 -38 -7 -3 -4 -33 -7
-66 -7 -44 -1 -61 3 -66 14 -29 69 -19 148 25 201 l28 33 -30 38 c-43 54 -49
129 -15 190 l24 44 -19 37 c-59 114 -1 257 104 257 34 0 48 -7 93 -50z m-775
-215 c11 -20 35 -44 52 -53 59 -33 79 -53 79 -81 0 -32 -25 -71 -47 -71 -8 0
-13 -6 -10 -12 19 -52 18 -58 -13 -89 -31 -31 -32 -32 -105 -26 -44 4 -86 2
-102 -4 -34 -13 -53 8 -53 60 0 49 32 98 77 118 21 10 40 19 42 20 2 1 -2 10
-9 18 -7 9 -14 36 -14 61 -1 38 4 50 27 70 38 32 51 30 76 -11z m1024 15 c34
-27 42 -69 22 -115 -8 -21 -14 -39 -13 -39 2 -1 20 -9 41 -19 45 -20 77 -69
77 -118 0 -52 -19 -73 -53 -60 -16 6 -58 8 -102 4 -73 -6 -74 -6 -105 26 -31
31 -33 40 -15 84 5 11 3 17 -6 17 -24 0 -49 33 -49 66 0 34 16 51 79 86 17 9
41 33 52 53 24 40 36 43 72 15z m-1056 -406 c10 -16 14 -36 10 -59 -5 -33 -5
-34 19 -24 41 15 89 10 117 -11 34 -27 42 -55 23 -82 -9 -12 -16 -32 -16 -44
0 -12 -7 -27 -16 -35 -25 -20 -44 -65 -44 -102 0 -43 30 -82 76 -99 24 -8 40
-23 51 -46 20 -42 59 -70 75 -54 8 8 3 19 -20 41 -47 43 -41 105 13 133 17 10
22 17 15 27 -13 22 -56 -1 -81 -43 -17 -29 -24 -34 -42 -27 -60 22 -70 89 -22
137 14 14 25 36 25 49 0 25 31 65 50 65 6 0 24 -7 41 -15 21 -12 34 -13 48 -5
34 18 62 11 97 -24 30 -30 34 -40 34 -88 0 -36 -7 -64 -20 -86 l-21 -34 26
-51 c29 -59 31 -95 9 -143 -30 -64 -105 -82 -165 -41 -27 18 -41 21 -68 16
-69 -14 -121 29 -121 101 0 28 -3 30 -35 30 -43 0 -90 23 -105 49 -5 11 -10
42 -10 70 0 45 -3 52 -27 65 -66 34 -103 103 -103 191 0 90 34 147 96 164 41
11 73 2 91 -25z m1148 4 c37 -29 55 -76 55 -143 0 -88 -37 -157 -102 -191 -24
-13 -28 -21 -28 -60 0 -82 -39 -124 -115 -124 -32 0 -35 -2 -35 -30 0 -73 -53
-115 -125 -100 -22 4 -39 0 -64 -17 -64 -44 -139 -24 -167 43 -21 49 -17 93
12 144 l25 44 -21 38 c-42 75 -23 160 43 198 21 12 32 12 58 3 26 -10 37 -9
61 3 16 8 38 12 49 9 24 -8 42 -41 36 -66 -4 -13 2 -25 18 -35 56 -37 54 -108
-4 -138 -29 -15 -30 -15 -50 19 -25 43 -68 66 -81 44 -7 -10 -2 -17 15 -27 54
-28 60 -86 14 -132 -23 -22 -29 -34 -21 -42 17 -17 58 15 73 57 7 19 19 35 27
35 48 0 102 61 102 115 0 30 -21 75 -44 94 -9 8 -16 23 -16 35 0 12 -7 32 -16
44 -42 61 54 125 140 93 24 -10 24 -9 19 24 -4 23 0 43 11 60 22 33 90 35 131
3z"/>
  </g>
</svg>
