<?xml version="1.0" standalone="no"?>
<!DOCTYPE svg PUBLIC "-//W3C//DTD SVG 20010904//EN"
 "http://www.w3.org/TR/2001/REC-SVG-20010904/DTD/svg10.dtd">
<svg version="1.0" xmlns="http://www.w3.org/2000/svg"
     width="256.000000pt" height="256.000000pt" viewBox="0 0 256.000000 256.000000"
     preserveAspectRatio="xMidYMid meet">
  <defs>
    <linearGradient id="displayColor">
      <stop offset="0" stop-color="black" />
    </linearGradient>
  </defs>
  <g transform="translate(0.000000,256.000000) scale(0.100000,-0.100000)"
     fill="url(#displayColor)" stroke="none">
    <path d="M572 2498 c-22 -22 -12 -417 18 -723 41 -413 118 -790 221 -1075 l53
	     -145 5 -219 6 -218 43 -38 c67 -60 139 -75 362 -75 223 0 295 15 362 75 l43
	     38 6 218 6 219 66 190 c141 408 217 897 234 1497 5 186 3 240 -7 253 -11 13
	     -93 15 -709 15 -529 0 -700 -3 -709 -12z m1318 -143 l0 -45 -610 0 -610 0 0
	     45 0 45 610 0 610 0 0 -45z m-10 -232 c0 -91 -24 -368 -45 -534 -38 -287 -96
	     -557 -167 -778 -60 -185 -71 -206 -109 -220 -62 -22 -271 -33 -396 -22 -168
	     15 -190 23 -213 75 -54 127 -133 412 -174 632 -50 264 -96 669 -96 847 l0 77
	     600 0 600 0 0 -77z m-779 -1663 c141 -16 386 -8 460 15 18 6 19 -1 19 -149 0
	     -152 0 -156 -24 -171 -89 -59 -463 -59 -552 0 -24 15 -24 19 -24 171 0 148 1
	     155 19 149 10 -3 56 -10 102 -15z"/>
    <path d="M1170 1695 l0 -105 -100 0 -100 0 0 -105 0 -105 100 0 100 0 0 -105
	     0 -105 110 0 110 0 0 105 0 105 100 0 100 0 0 105 0 105 -100 0 -100 0 0 105
	     0 105 -110 0 -110 0 0 -105z"/>
  </g>
</svg>
