<?xml version="1.0" standalone="no"?>
<!DOCTYPE svg PUBLIC "-//W3C//DTD SVG 20010904//EN"
"http://www.w3.org/TR/2001/REC-SVG-20010904/DTD/svg10.dtd" >
<svg version="1.0" xmlns="http://www.w3.org/2000/svg"
     width="200.000000pt" height="200.000000pt" viewBox="0 0 200.000000 200.000000"
     preserveAspectRatio="xMidYMid meet">
  <defs>
    <linearGradient id="displayColor">
      <stop offset="0" stop-color="black" />
    </linearGradient>
  </defs>
  <g transform="translate(0.000000,200.000000) scale(0.100000,-0.100000)"
fill="url(#displayColor)" stroke="none">
    <path d="M1325 1905 c-22 -9 -61 -32 -86 -53 -48 -40 -539 -493 -539 -497 0
	     -2 33 -20 74 -40 86 -42 180 -117 261 -208 l58 -65 63 43 c153 105 333 130
	     509 70 l70 -24 58 57 c80 78 109 137 115 233 11 184 -102 366 -283 455 -70 35
	     -86 38 -169 41 -62 2 -104 -2 -131 -12z"/>
    <path d="M353 1035 c-350 -323 -348 -320 -348 -480 0 -106 1 -113 37 -188 51
	     -107 138 -194 245 -245 74 -35 83 -37 178 -37 140 0 141 0 393 238 l74 69 -17
	     70 c-13 52 -16 95 -13 171 6 119 34 205 99 299 l40 60 -27 40 c-67 96 -247
	     231 -351 262 -18 6 -68 -36 -310 -259z"/>
    <path d="M1445 1123 c-226 -19 -407 -169 -470 -387 -13 -45 -16 -84 -13 -163
	     3 -57 10 -109 16 -115 7 -7 143 42 484 177 260 102 477 190 482 195 12 12 -58
	     113 -112 161 -108 95 -250 143 -387 132z"/>
    <path d="M1495 567 c-264 -104 -482 -191 -484 -193 -9 -8 53 -95 104 -146 98
	     -97 224 -148 367 -148 238 0 436 151 503 384 13 46 16 85 13 168 -3 60 -9 112
	     -14 117 -5 5 -214 -73 -489 -182z"/>
  </g>
</svg>
