<?xml version="1.0" ?>
<!DOCTYPE svg  PUBLIC '-//W3C//DTD SVG 1.1//EN'  'http://www.w3.org/Graphics/SVG/1.1/DTD/svg11.dtd'>
<svg enable-background="new 0 0 24 24" height="24px" id="Layer_1" version="1.1" viewBox="0 0 24 24" width="24px" xml:space="preserve" xmlns="http://www.w3.org/2000/svg" xmlns:xlink="http://www.w3.org/1999/xlink">
  <defs>
    <linearGradient id="displayColor">
      <stop offset="0" stop-color="black" />
    </linearGradient>
  </defs>  
  <g fill="url(#displayColor)" >
    <path d="M5.9,1H1.1C0.5,1,0,1.5,0,2.1v4.8C0,7.5,0.5,8,1.1,8h4.8C6.5,8,7,7.5,7,6.9V2.1C7,1.5,6.5,1,5.9,1z M5,6H2V3h3V6z"/>
    <path d="M5.9,9H1.1C0.5,9,0,9.5,0,10.1v4.8C0,15.5,0.5,16,1.1,16h4.8C6.5,16,7,15.5,7,14.9v-4.8C7,9.5,6.5,9,5.9,9z M5,14H2v-3h3   V14z"/>
    <path d="M5.9,17H1.1C0.5,17,0,17.5,0,18.1v4.8C0,23.5,0.5,24,1.1,24h4.8C6.5,24,7,23.5,7,22.9v-4.8C7,17.5,6.5,17,5.9,17z M5,22H2   v-3h3V22z"/>
    <path d="M9,4h14c0.6,0,1-0.4,1-1s-0.4-1-1-1H9C8.4,2,8,2.4,8,3S8.4,4,9,4z"/>
    <path d="M23,5H9C8.4,5,8,5.4,8,6s0.4,1,1,1h14c0.6,0,1-0.4,1-1S23.6,5,23,5z"/>
    <path d="M23,10H9c-0.6,0-1,0.4-1,1s0.4,1,1,1h14c0.6,0,1-0.4,1-1S23.6,10,23,10z"/>
    <path d="M23,13H9c-0.6,0-1,0.4-1,1s0.4,1,1,1h14c0.6,0,1-0.4,1-1S23.6,13,23,13z"/>
    <path d="M23,18H9c-0.6,0-1,0.4-1,1s0.4,1,1,1h14c0.6,0,1-0.4,1-1S23.6,18,23,18z"/>
    <path d="M23,21H9c-0.6,0-1,0.4-1,1s0.4,1,1,1h14c0.6,0,1-0.4,1-1S23.6,21,23,21z"/>
  </g>
</svg>
