<?xml version="1.0" encoding="iso-8859-1"?>
<!-- Generator: Adobe Illustrator 17.1.0, SVG Export Plug-In . SVG Version: 6.00 Build 0)  -->
<!DOCTYPE svg PUBLIC "-//W3C//DTD SVG 1.1//EN" "http://www.w3.org/Graphics/SVG/1.1/DTD/svg11.dtd">
<svg version="1.1" id="Capa_1" xmlns="http://www.w3.org/2000/svg" xmlns:xlink="http://www.w3.org/1999/xlink" x="0px" y="0px"
	 viewBox="0 0 470.143 470.143" style="enable-background:new 0 0 470.143 470.143;" xml:space="preserve">
  <defs>
    <linearGradient id="displayColor">
      <stop offset="0" stop-color="black" />
    </linearGradient>
  </defs>
  
  <g fill="url(#displayColor)">
	<path d="M246.578,285.107c-4.004,1.059-6.393,5.164-5.334,9.168c8.44,31.923-0.706,66.143-23.868,89.306l-44.59,44.59
		c-17.393,17.393-40.622,26.972-65.408,26.972s-48.015-9.579-65.407-26.972C24.579,410.778,15,387.549,15,362.764
		s9.579-48.015,26.972-65.408l44.59-44.59c23.163-23.163,57.383-32.308,89.306-23.868c4.002,1.06,8.108-1.33,9.168-5.334
		c1.059-4.004-1.33-8.109-5.334-9.168c-37.066-9.798-76.821,0.838-103.746,27.763l-44.59,44.59C11.139,306.976,0,333.971,0,362.764
		s11.139,55.788,31.365,76.014c20.226,20.226,47.221,31.365,76.014,31.365s55.788-11.139,76.014-31.365l44.59-44.59
		c26.925-26.925,37.563-66.678,27.763-103.746C254.687,286.437,250.582,284.047,246.578,285.107z"/>
	<path d="M114.846,281.05c7.311-7.311,16.532-12.254,26.667-14.297c4.061-0.818,6.689-4.773,5.871-8.834
		c-0.818-4.06-4.769-6.689-8.834-5.87c-13.039,2.627-24.903,8.988-34.31,18.395l-44.59,44.59c-26.318,26.318-26.318,69.141,0,95.459
		c13.159,13.159,30.444,19.738,47.729,19.738c17.286,0,34.571-6.579,47.73-19.738l44.59-44.59
		c9.406-9.407,15.767-21.271,18.394-34.31c0.818-4.061-1.81-8.016-5.87-8.834c-4.063-0.819-8.016,1.81-8.834,5.871
		c-2.042,10.134-6.986,19.355-14.297,26.667l-44.59,44.59c-10.236,10.236-23.678,15.353-37.124,15.352
		c-13.442-0.001-26.889-5.119-37.123-15.352c-20.469-20.47-20.469-53.777,0-74.247L114.846,281.05z"/>
	<path d="M330.56,178.473c10.72-10.722,10.719-28.167-0.002-38.888c-10.722-10.723-28.169-10.723-38.891,0L139.585,291.667
		c-10.722,10.722-10.722,28.168,0,38.891c5.361,5.361,12.403,8.042,19.445,8.042s14.084-2.68,19.445-8.042l0.957-0.957
		C192.279,316.754,330.037,178.997,330.56,178.473z M168.826,318.994l-0.957,0.957c-4.874,4.874-12.804,4.874-17.678,0
		c-4.874-4.874-4.874-12.804,0-17.678l152.082-152.082c2.437-2.437,5.638-3.655,8.839-3.655s6.402,1.218,8.839,3.655
		c4.874,4.874,4.874,12.804,0,17.678c-0.001,0-0.001,0.001-0.002,0.002C319.425,168.396,181.672,306.148,168.826,318.994z"/>
	<path d="M438.777,31.365C418.552,11.139,391.556,0,362.764,0s-55.788,11.139-76.014,31.365l-44.59,44.59
		c-26.925,26.925-37.563,66.678-27.763,103.746c1.059,4.004,5.162,6.392,9.168,5.334c4.004-1.059,6.393-5.164,5.334-9.168
		c-8.44-31.923,0.706-66.143,23.868-89.306l44.59-44.59C314.749,24.579,337.978,15,362.764,15s48.015,9.579,65.407,26.972
		c17.393,17.393,26.972,40.622,26.972,65.407s-9.579,48.015-26.972,65.408l-44.59,44.59c-23.163,23.163-57.383,32.308-89.306,23.868
		c-4.006-1.059-8.109,1.33-9.168,5.334s1.33,8.109,5.334,9.168c9.115,2.41,18.391,3.584,27.601,3.584
		c28.241,0,55.842-11.043,76.146-31.347l44.59-44.59c20.226-20.226,31.365-47.222,31.365-76.014S459.003,51.591,438.777,31.365z"/>
	<path d="M355.296,189.092c-7.31,7.311-16.531,12.254-26.666,14.297c-4.061,0.818-6.689,4.773-5.871,8.834
		c0.717,3.561,3.847,6.02,7.344,6.02c0.491,0,0.99-0.048,1.49-0.149c13.04-2.628,24.904-8.989,34.309-18.395l44.59-44.59
		c12.731-12.731,19.742-29.682,19.742-47.73c0-18.048-7.011-34.999-19.742-47.729s-29.682-19.742-47.729-19.742
		c-18.048,0-34.999,7.011-47.73,19.742l-44.59,44.59c-9.406,9.405-15.767,21.27-18.395,34.309c-0.818,4.061,1.81,8.016,5.87,8.834
		c4.065,0.821,8.016-1.81,8.834-5.871c2.042-10.135,6.986-19.356,14.297-26.666l44.59-44.59
		c9.898-9.898,23.082-15.349,37.124-15.349c14.041,0,27.225,5.451,37.123,15.349s15.349,23.082,15.349,37.123
		c0,14.042-5.451,27.226-15.349,37.124L355.296,189.092z"/>
</g>

</svg>
