<?xml version="1.0" encoding="iso-8859-1"?>
<!-- Generator: Adobe Illustrator 18.0.0, SVG Export Plug-In . SVG Version: 6.00 Build 0)  -->
<!DOCTYPE svg PUBLIC "-//W3C//DTD SVG 1.1//EN" "http://www.w3.org/Graphics/SVG/1.1/DTD/svg11.dtd">
<svg version="1.1" id="Capa_1" xmlns="http://www.w3.org/2000/svg" xmlns:xlink="http://www.w3.org/1999/xlink" x="0px" y="0px"
     viewBox="0 0 459.989 459.989" style="enable-background:new 0 0 459.989 459.989;" xml:space="preserve">

  <defs>
    <linearGradient id="displayColor">
      <stop offset="0" stop-color="black" />
    </linearGradient>
  </defs>

<g  fill="url(#displayColor)" id="XMLID_526_">
	<path id="XMLID_530_" d="M172.455,336.917c-1.037,1.676-2.206,3.25-3.508,4.694l-4.444,4.89l-25.497,28.098l9.032,38.489
		c2.598,11.068,13.674,17.936,24.745,15.339c11.068-2.598,17.937-13.676,15.339-24.745L172.455,336.917z"/>
	<circle id="XMLID_1089_" cx="47.487" cy="70.316" r="37.865"/>
	<path id="XMLID_1091_" d="M157.225,317.147c-1.474-6.542-6.042-11.957-12.243-14.51l-80.405-33.115
		c9.983,2.073,76.447,15.871,86.635,17.986c3.882,0.806,7.461,2.267,10.645,4.244l-4.584-19.534
		c-2.184-9.305-10.484-15.883-20.042-15.883h-33.524l-1.505-22.684c-7.578,0.42-14.884-3.033-19.385-9.058l-40.044-53.785
		l50.726,40.361c4.502,3.582,10.492,4.663,15.95,2.902l65.227-21.05c9.017-2.91,13.968-12.579,11.058-21.595
		c-1.01-3.13-2.848-5.755-5.178-7.746c3.946-21.265,2.955-15.927,4.426-23.854c10.319-4.258,19.932-17.167,23.797-28.29
		c0.441-1.268,0.305-2.666-0.37-3.826c-0.675-1.16-1.824-1.967-3.144-2.212l-44.597-8.275c-1.319-0.245-2.679,0.099-3.725,0.939
		c-1.046,0.84-1.678,2.096-1.721,3.437c-0.383,11.769,3.959,27.267,12.064,34.943c-1.642,8.849-0.893,4.813-4.502,24.265
		l-55.117,17.788l-43.529-34.634l33.078,14.51l-0.596-8.988c-0.935-14.096-13.12-24.765-27.216-23.829l-45.515,3.02
		c-14.096,0.935-24.765,13.12-23.829,27.216L7.97,275.155c-0.726,8.388,3.771,16.986,12.673,20.801l3.902,1.607h-5.399
		c-4.464,0-8.084,3.619-8.084,8.084V409.75c0,7.487,6.07,13.557,13.557,13.557h0.037c-5.708-12.947-3.685-28.596,6.437-39.751
		l49.955-55.052l-32.155-20.914l53.305,21.953l-58.988,65.006c-7.641,8.42-7.009,21.439,1.411,29.079
		c8.427,7.648,21.447,7,29.079-1.411l78.686-86.713C156.894,330.54,158.698,323.69,157.225,317.147z"/>
	<path id="XMLID_1101_" d="M436.103,127.033l-45.527-3.021c-12.439-0.825-23.385,7.389-26.43,19.018l37.115-6.685l-50.402,23.539
		L300.186,129c-1.628-0.993-3.358-1.667-5.121-2.069c-4.529-21.809-3.252-15.662-5.174-24.916
		c8.134-7.927,12.246-23.842,11.6-35.833c-0.073-1.361-0.737-2.622-1.817-3.453s-2.469-1.147-3.804-0.87l-45.076,9.36
		c-1.333,0.277-2.479,1.122-3.139,2.313c-0.66,1.191-0.771,2.614-0.297,3.89c4.182,11.257,14.29,24.219,24.908,28.252
		c2.129,10.252,0.782,3.765,5.65,27.212c-0.466,0.579-0.911,1.181-1.309,1.833c-4.931,8.09-2.369,18.646,5.722,23.577l58.526,35.67
		c4.912,2.995,10.991,3.322,16.187,0.895l58.736-27.431L358.99,213.7l-3.731,56.241l42.653,4.698l-86.707,6.626
		c-6.687,0.511-12.706,4.247-16.131,10.013s-3.827,12.838-1.077,18.955l48.012,106.796c4.663,10.371,16.845,14.997,27.218,10.335
		c10.369-4.662,14.997-16.848,10.335-27.217l-35.993-80.062l57.48-4.392c-4.198,1.127-34.073,9.146-37.046,9.944
		c3.119,6.938,26.882,59.795,30.481,67.802c4.439,9.874,4.185,20.664,0.189,29.869h46.865c7.487,0,13.557-6.07,13.557-13.557
		V305.647c0-3.235-1.905-6.018-4.65-7.31l9.489-144.101C460.861,140.145,450.194,127.968,436.103,127.033z"/>
	<circle id="XMLID_1104_" cx="412.489" cy="68.677" r="37.865"/>
	<path id="XMLID_1108_" d="M263.458,396.775h-15.751v-147.74h79.428c6.524,0,11.813-5.289,11.813-11.813
		s-5.288-11.813-11.813-11.813h-91.24h-89.303c-6.524,0-11.813,5.289-11.813,11.813s5.288,11.813,11.813,11.813h77.49v147.74
		h-14.963c-6.524,0-11.813,5.289-11.813,11.813s5.288,11.813,11.813,11.813h54.339c6.524,0,11.813-5.289,11.813-11.813
		S269.982,396.775,263.458,396.775z"/>
</g>

</svg>
